<?xml version="1.0" encoding="UTF-8" standalone="no"?>
<!-- Created with Inkscape (http://www.inkscape.org/) -->

<svg
   width="448.05634mm"
   height="163.71545mm"
   viewBox="0 0 448.05634 163.71545"
   version="1.1"
   id="svg5"
   xml:space="preserve"
   xmlns:inkscape="http://www.inkscape.org/namespaces/inkscape"
   xmlns:sodipodi="http://sodipodi.sourceforge.net/DTD/sodipodi-0.dtd"
   xmlns="http://www.w3.org/2000/svg"
   xmlns:svg="http://www.w3.org/2000/svg"><sodipodi:namedview
     id="namedview7"
     pagecolor="#505050"
     bordercolor="#eeeeee"
     borderopacity="1"
     inkscape:showpageshadow="0"
     inkscape:pageopacity="0"
     inkscape:pagecheckerboard="0"
     inkscape:deskcolor="#505050"
     inkscape:document-units="mm"
     showgrid="false" /><defs
     id="defs2" /><g
     inkscape:label="Layer 1"
     inkscape:groupmode="layer"
     id="layer1"
     transform="translate(345.90421,-161.03469)"><path
       style="fill:#000000;stroke-width:0.264583"
       d="m -272.27533,324.36165 c -20.3709,-2.1196 -38.40592,-11.11324 -52.17059,-26.01624 -11.54687,-12.50179 -18.95668,-28.57592 -21.11392,-45.80253 -0.45918,-3.66676 -0.45918,-15.64781 0,-19.31458 2.15439,-17.20379 9.57022,-33.30434 21.08278,-45.77292 10.65455,-11.53931 24.32719,-19.81274 39.14034,-23.68415 28.97422,-7.5724 59,0.80162 79.80529,22.25725 26.66543,27.49896 30.56743,70.10039 9.35173,102.10086 -9.62969,14.52484 -23.89871,25.77737 -40.21493,31.7134 -11.23263,4.08657 -24.26339,5.72769 -35.8807,4.51891 z m 12.41653,-1.17637 c 20.40038,-1.24082 38.58267,-9.50826 52.73874,-23.98018 4.92923,-5.03921 8.23728,-9.25103 11.47953,-14.61576 15.52837,-25.69376 15.53606,-57.71529 0.02,-83.37562 -3.26714,-5.40318 -6.56152,-9.59942 -11.49956,-14.64763 -20.42445,-20.88015 -49.79748,-28.87095 -78.33217,-21.30991 -21.34884,5.65696 -40.57424,21.37975 -50.60017,41.3815 -18.2293,36.36748 -6.7493,80.2613 26.92411,102.94438 12.48725,8.41166 26.42593,13.0206 41.40314,13.6903 0.94589,0.0423 2.13651,0.0988 2.64583,0.12551 0.50933,0.0267 2.85856,-0.0689 5.22052,-0.21259 z m -5.08822,-8.49536 c -1.34158,-0.7614 -1.62058,-2.3842 -0.57827,-3.36341 0.80025,-0.75179 2.36283,-0.7751 3.09181,-0.0461 0.68976,0.68976 0.71748,2.39339 0.0488,2.99856 -0.64017,0.57934 -1.90751,0.78262 -2.56232,0.41097 z m 1.83318,-0.91489 c 0.62992,-0.62992 0.51485,-1.62378 -0.24568,-2.1221 -0.61275,-0.40148 -0.71018,-0.40148 -1.32292,0 -0.76279,0.4998 -0.85591,1.3553 -0.22358,2.05402 0.53741,0.59382 1.23975,0.6205 1.79218,0.0681 z m -10.3487,0.41393 c -1.2415,-0.50021 -1.54404,-2.43842 -0.52941,-3.39162 0.80024,-0.75179 2.36282,-0.7751 3.0918,-0.0461 0.80913,0.80913 0.72146,2.45616 -0.16797,3.1558 -0.73796,0.58047 -1.44643,0.66389 -2.39442,0.28194 z m 2.01994,-0.9082 c 0.45239,-0.54509 0.23735,-1.74751 -0.38607,-2.1588 -0.70632,-0.46597 -1.81426,0.0571 -1.93701,0.91447 -0.1769,1.23554 1.5588,2.16524 2.32308,1.24433 z m 14.18414,-0.70302 c -0.10176,-1.0327 -0.12303,-1.93963 -0.0473,-2.0154 0.0758,-0.0758 0.64966,-0.19494 1.27531,-0.26483 1.59399,-0.17805 2.59276,0.60826 2.59276,2.04121 0,1.3397 -0.92319,2.11667 -2.51504,2.11667 h -1.12075 z m 2.70956,0.7664 c 0.17463,-0.17463 0.3175,-0.62707 0.3175,-1.00542 0,-0.92995 -0.45781,-1.32292 -1.5412,-1.32292 -0.87383,0 -0.90029,0.0295 -0.74083,0.82683 0.091,0.45475 0.16536,1.05006 0.16536,1.32291 0,0.36695 0.19286,0.4961 0.74084,0.4961 0.40746,0 0.88371,-0.14288 1.05833,-0.3175 z m -27.10284,-0.52112 c -1.22122,-0.59133 -1.48417,-2.29551 -0.50523,-3.27445 0.76625,-0.76626 2.10092,-0.8644 3.01816,-0.22194 0.84501,0.59187 0.34343,1.02324 -0.61289,0.52709 -0.93813,-0.4867 -1.78264,-0.19863 -2.11077,0.72 -0.19258,0.53914 -0.14005,0.80848 0.23945,1.22782 0.63292,0.69938 1.62175,0.70377 1.8037,0.008 0.16337,-0.62471 0.71709,-0.71344 0.71709,-0.1149 0,1.27874 -1.16975,1.79645 -2.54951,1.12836 z m 37.76888,-2.88737 c -0.33194,-1.03064 -0.56373,-1.90636 -0.51509,-1.94604 0.0972,-0.0793 2.64453,-0.94256 2.78139,-0.94256 0.0468,0 0.0852,0.16936 0.0852,0.37636 0,0.20699 -0.41672,0.51388 -0.92604,0.68198 -0.84233,0.27799 -1.16084,0.73534 -0.77842,1.11776 0.0812,0.0812 0.49624,0.016 0.92234,-0.14481 0.56582,-0.21357 0.85364,-0.21351 1.06737,2.1e-4 0.21379,0.21379 0.0366,0.37715 -0.65777,0.6063 -0.87051,0.28729 -1.18791,0.74066 -0.79418,1.13439 0.0859,0.0859 0.61093,-0.004 1.1667,-0.20031 0.95512,-0.33699 1.32292,-0.29486 1.32292,0.15151 0,0.20055 -2.23796,1.03911 -2.77318,1.03911 -0.16372,0 -0.56925,-0.84325 -0.9012,-1.8739 z m -50.56521,-1.31849 c 0,-0.15509 0.10258,-0.48251 0.22796,-0.7276 0.12537,-0.2451 0.14886,-1.13024 0.0522,-1.96699 -0.12658,-1.09574 -0.088,-1.52135 0.13806,-1.52135 0.34162,0 0.63079,0.82564 0.63651,1.81734 l 0.004,0.62672 0.94842,-0.7234 c 1.47034,-1.12149 1.71755,-0.43021 0.27027,0.75573 -0.65213,0.53437 -1.26067,1.20782 -1.35231,1.49655 -0.1725,0.54345 -0.92473,0.74113 -0.92473,0.243 z m 58.1068,-1.53902 c -1.88457,-1.90445 -1.47045,-2.43398 0.46531,-0.59497 l 1.28981,1.22534 -0.15317,-1.7623 c -0.11806,-1.35826 -0.0698,-1.79429 0.2105,-1.90185 0.27923,-0.10715 0.40637,0.31606 0.54755,1.82263 0.30919,3.29956 -0.0904,3.50464 -2.36,1.21115 z m -64.52223,-1.46526 c -0.54531,-0.30261 -0.99179,-0.63312 -0.99219,-0.73447 -0.001,-0.33978 1.87414,-3.38761 2.08453,-3.38761 0.54015,0 0.46689,0.43864 -0.3003,1.79801 -0.47442,0.84064 -0.71174,1.51424 -0.55222,1.56741 0.68587,0.22862 1.26928,0.84265 1.01624,1.06958 -0.16051,0.14394 -0.65459,0.0209 -1.25606,-0.31292 z m 71.40719,-1.91043 c -0.56198,-0.96083 -0.91131,-1.82175 -0.77629,-1.91316 1.61866,-1.09583 2.26284,-1.39477 2.49827,-1.15934 0.17639,0.17639 -0.0506,0.45935 -0.68083,0.84888 -0.51997,0.32136 -0.94541,0.68662 -0.94541,0.81168 0,0.47335 0.54156,0.53039 1.30201,0.13714 0.95455,-0.49362 1.07972,-0.50255 1.07757,-0.077 -7.9e-4,0.1819 -0.3711,0.54101 -0.82261,0.79801 -0.68217,0.3883 -0.76572,0.53382 -0.49424,0.86093 0.28613,0.34477 0.43994,0.32365 1.23885,-0.1701 0.59892,-0.37016 1.00166,-0.47424 1.17281,-0.3031 0.17114,0.17114 -0.18418,0.54609 -1.03472,1.09188 -0.71245,0.45718 -1.34448,0.82896 -1.4045,0.82617 -0.06,-0.003 -0.56893,-0.7912 -1.13091,-1.75203 z m -77.25078,-1.85887 c -0.097,-0.097 -0.17639,-0.95391 -0.17639,-1.90421 v -1.72782 l -0.80684,1.09713 c -0.50662,0.68889 -0.94826,1.04287 -1.18689,0.95129 -0.28911,-0.11094 -0.10072,-0.53514 0.78722,-1.77261 0.64201,-0.89472 1.32494,-1.62677 1.51762,-1.62677 0.24438,0 0.39036,0.55545 0.48264,1.83636 l 0.13229,1.83637 0.66146,-0.97466 c 0.62928,-0.92726 1.32291,-1.29554 1.32291,-0.7024 0,0.36625 -2.07397,3.16371 -2.3455,3.16371 -0.11667,0 -0.29151,-0.0794 -0.38852,-0.17639 z m 35.93923,-1.19009 c -3.50307,-0.39544 -8.45189,-1.49196 -11.86321,-2.62857 -3.48249,-1.16032 -8.98672,-3.70276 -11.94929,-5.51943 -7.12317,-4.36801 -14.00266,-11.09755 -18.53856,-18.13448 -1.57422,-2.44223 -4.61248,-8.21274 -4.61248,-8.76039 0,-0.3518 1.15388,-0.7256 1.26279,-0.40908 0.0397,0.11535 0.7619,1.57083 1.60493,3.23439 7.40153,14.6057 20.64713,25.29142 36.35918,29.33233 5.07983,1.30645 8.49481,1.71777 14.21893,1.71261 5.70515,-0.005 8.90888,-0.39049 14.03498,-1.68812 15.99192,-4.04824 29.57282,-15.14349 36.84625,-30.10247 0.72525,-1.49159 1.39763,-2.71198 1.49418,-2.71198 0.0965,0 0.38514,0.15327 0.64133,0.34059 0.43237,0.31616 0.35152,0.56887 -1.12691,3.52237 -4.73044,9.45011 -12.15722,17.63419 -21.15667,23.31399 -7.24107,4.57004 -15.93748,7.57165 -24.70346,8.52652 -3.00804,0.32766 -9.4885,0.31301 -12.51199,-0.0283 z m 47.95787,-0.99883 c -0.54452,-0.70643 -1.05569,-1.4555 -1.13593,-1.6646 -0.16014,-0.41731 1.60211,-1.79093 2.29763,-1.79093 0.6037,0 1.28356,0.87172 1.28356,1.6458 0,0.50554 0.17106,0.72102 0.67228,0.84682 0.96029,0.24102 0.50536,0.7628 -0.50415,0.57823 -1.09329,-0.1999 -1.72209,0.16842 -1.25282,0.73386 0.31973,0.38524 0.20364,0.97065 -0.1877,0.94652 -0.10055,-0.006 -0.62834,-0.58926 -1.17287,-1.2957 z m 1.33401,-1.12719 c 0.87708,-0.87709 -0.0887,-1.96733 -1.00676,-1.1365 -0.39264,0.35533 -0.44941,0.57698 -0.24542,0.95813 0.30429,0.56858 0.79243,0.63811 1.25218,0.17837 z m -92.15438,-2.58093 c -1.54172,-0.62383 -2.00775,-2.43244 -0.92402,-3.58602 1.32258,-1.40782 3.70215,-0.30252 3.70215,1.71964 0,0.62282 -1.01004,1.76575 -1.71979,1.94606 -0.29105,0.0739 -0.7673,0.0381 -1.05834,-0.0797 z m 1.83902,-1.7003 c 0.20608,-0.57711 0.14736,-0.80852 -0.32501,-1.2809 -0.47818,-0.47817 -0.70166,-0.53281 -1.30986,-0.32024 -0.55948,0.19554 -0.75252,0.45298 -0.81433,1.086 -0.16129,1.65183 1.88929,2.08312 2.4492,0.51514 z m 96.72325,0.2391 c -0.17842,-0.21499 -1.0277,-0.58822 -1.88729,-0.82941 -1.20106,-0.337 -1.49879,-0.51574 -1.28605,-0.77208 0.21052,-0.25367 0.4963,-0.2662 1.1932,-0.0523 0.50401,0.15468 0.97397,0.22365 1.04437,0.15325 0.0704,-0.0704 0.0144,-0.52401 -0.1244,-1.00803 -0.13882,-0.48402 -0.18928,-0.98216 -0.11215,-1.10696 0.31362,-0.50745 0.60189,-0.15817 0.90202,1.09294 0.17415,0.72591 0.53931,1.60294 0.81148,1.94894 0.67394,0.85678 0.15251,1.40951 -0.54118,0.57366 z m 3.62006,-5.76711 -1.53433,-1.38264 0.82599,-0.99219 c 0.6856,-0.82354 0.99477,-0.99218 1.81895,-0.99218 1.17199,0 2.14352,0.85915 2.14352,1.89558 0,0.52618 -1.3674,2.88916 -1.6553,2.8605 -0.0355,-0.004 -0.75494,-0.62861 -1.59883,-1.38907 z m 2.31246,-0.80386 c 0.34103,-0.9697 -0.065,-1.6131 -1.08291,-1.7161 -0.52652,-0.0533 -0.94236,0.0998 -1.27761,0.47023 -0.49058,0.54207 -0.48525,0.55932 0.41039,1.32888 1.08512,0.93237 1.60076,0.91042 1.95013,-0.083 z M -323.308,284.57782 c -0.90458,-0.90458 -0.98559,-1.7959 -0.24842,-2.73306 1.06713,-1.35664 3.10321,-1.02615 3.6685,0.59545 0.32231,0.92458 0.18712,1.46918 -0.57486,2.31569 -0.76173,0.84624 -1.89162,0.77552 -2.84522,-0.17808 z m 2.4016,-0.54952 c 0.61864,-0.61864 0.66258,-1.03933 0.1778,-1.7023 -0.71361,-0.97592 -2.55905,-0.34699 -2.55905,0.87214 0,0.56676 0.79525,1.35933 1.36392,1.35933 0.26849,0 0.72629,-0.23813 1.01733,-0.52917 z m 114.7422,-2.25303 c -1.38513,-2.06474 -1.37049,-2.65008 0.06,-2.39817 0.52417,0.0923 1.51859,0.24068 2.20981,0.32971 1.32043,0.17006 1.82191,0.88191 0.62129,0.88191 -0.81676,0 -1.86871,1.51744 -1.42368,2.05367 0.20543,0.24752 0.20799,0.43249 0.009,0.63171 -0.19922,0.19921 -0.63147,-0.23966 -1.47618,-1.49883 z m 1.40988,-1.18811 c 0,-0.18154 -1.37081,-0.56343 -1.51527,-0.42214 -0.033,0.0323 0.12653,0.32513 0.35457,0.65071 0.32873,0.46932 0.49191,0.52782 0.78767,0.28237 0.20517,-0.17028 0.37303,-0.4002 0.37303,-0.51094 z m -122.85715,-3.4366 c -0.63135,-0.75031 -1.12261,-1.79792 -0.92586,-1.97438 0.2437,-0.21858 3.46066,-1.75481 3.52301,-1.68239 0.39947,0.46394 0.93292,1.94142 0.93292,2.58387 0,1.85907 -2.28435,2.55336 -3.53007,1.0729 z m 2.61673,-0.64514 c 0.38867,-0.59319 0.28991,-1.26459 -0.28748,-1.95443 -0.15796,-0.18872 -2.23876,1.04365 -2.23876,1.32591 0,0.53977 0.85791,1.27223 1.49011,1.27223 0.35883,0 0.78978,-0.26773 1.03613,-0.64371 z m 39.01334,-14.28078 v -15.23801 h -4.49792 -4.49791 v -5.42396 -5.42395 h 4.49791 4.49792 v -15.23819 -15.23819 l 13.29531,0.1256 c 11.99707,0.11333 13.57951,0.17901 16.20573,0.67266 15.70088,2.95127 25.17298,13.38777 26.98776,29.73548 0.30192,2.71974 0.15699,10.3267 -0.2567,13.47332 -1.88779,14.3589 -9.06851,22.91555 -21.95592,26.16302 -4.96312,1.25064 -6.59223,1.36809 -20.84858,1.50308 l -13.4276,0.12715 z m 27.19091,4.06858 c 10.07929,-1.26384 16.62625,-7.77751 18.44282,-18.34906 0.57273,-3.333 0.52696,-9.19054 -0.0954,-12.20575 -1.89798,-9.19572 -8.20335,-16.10038 -16.83107,-18.43075 -1.88252,-0.50848 -2.97275,-0.58411 -9.85573,-0.68373 l -7.73906,-0.11201 v 9.8134 9.8134 h 7.67292 7.67291 v 5.42395 5.42396 h -7.67291 -7.67292 v 9.78959 9.78958 h 6.95225 c 3.82374,0 7.93051,-0.12266 9.12616,-0.27258 z m 58.13722,8.73925 c -0.0899,-0.14552 -0.94499,-0.26459 -1.9001,-0.26459 -1.51362,0 -1.69429,-0.051 -1.4072,-0.39687 0.18116,-0.21828 0.74328,-0.39688 1.24916,-0.39688 h 0.91978 l -0.56933,-0.96493 c -0.86941,-1.47356 -0.24554,-1.71865 0.73757,-0.28975 0.44433,0.6458 1.11606,1.37613 1.49274,1.62294 0.37667,0.24681 0.61451,0.56257 0.52852,0.7017 -0.20487,0.3315 -0.84345,0.32443 -1.05115,-0.0116 z m -133.85042,-13.83152 c -1.21754,-0.90334 0.67905,-4.16015 2.42265,-4.16015 1.38691,0 2.97256,1.73991 2.97256,3.26176 0,0.91168 -0.61703,1.3315 -1.65123,1.12346 -1.06551,-0.21433 -1.44265,-0.21643 -2.44981,-0.0136 -0.49573,0.0998 -0.98164,0.0204 -1.29417,-0.21144 z m 135.1566,-0.31209 c -0.40238,-0.61411 -0.38677,-0.72156 0.28367,-1.95338 1.3918,-2.55719 3.61085,-2.55471 4.91698,0.006 0.96967,1.90071 -0.0128,3.10516 -1.89648,2.32492 -0.60312,-0.24982 -0.8788,-0.25729 -1.10612,-0.03 -0.54319,0.54319 -1.73838,0.35447 -2.19805,-0.34707 z m -121.35948,-1.5991 0.12644,-0.66146 h 5.78999 5.78999 v 0.66146 0.66146 h -5.91644 -5.91643 z m 100.91875,0.0661 c 0.0844,-0.59452 0.0924,-0.59541 5.97152,-0.66652 l 5.88698,-0.0712 v 0.66652 0.66652 h -5.97152 -5.97153 z m 26.02128,-0.89012 c -0.54184,-0.54185 -0.5104,-1.24709 0.0794,-1.78085 0.60702,-0.54935 1.20335,-0.55848 1.64593,-0.0252 0.81871,0.98647 -0.82466,2.70672 -1.72534,1.80605 z m -142.76347,-0.3913 c -0.45952,-0.85862 -0.10241,-1.82744 0.67359,-1.82744 0.89511,0 1.60374,1.08217 1.20118,1.83434 -0.38651,0.72221 -1.48673,0.71816 -1.87477,-0.007 z m 6.99833,-0.1183 c -0.29815,-1.18793 1.13955,-2.20987 1.95778,-1.39164 0.75166,0.75166 0.0195,2.06375 -1.15157,2.06375 -0.46205,0 -0.68394,-0.18498 -0.80621,-0.67211 z m 128.47422,0.1293 c -0.15977,-0.29855 -0.25326,-0.80457 -0.20774,-1.12448 0.064,-0.45005 0.2606,-0.58166 0.8687,-0.58166 0.94327,0 1.59352,0.98156 1.172,1.76918 -0.3497,0.65342 -1.47013,0.61489 -1.83296,-0.063 z m -133.32642,-1.82217 c -0.69492,-0.69492 -0.69382,-1.45538 0.003,-2.15233 0.48494,-0.48494 0.61253,-0.50608 1.10012,-0.18233 0.76307,0.50666 1.01357,1.32423 0.6371,2.07936 -0.41492,0.83225 -1.06766,0.928 -1.74035,0.2553 z m 2.84115,-0.15922 c -0.41983,-0.92143 0.003,-2.07835 0.80049,-2.19246 1.18134,-0.16894 1.76913,1.09371 1.09528,2.35281 -0.40622,0.75903 -1.51979,0.66485 -1.89577,-0.16035 z m 132.69331,0.35416 c -0.48623,-0.62671 -0.60131,-1.26644 -0.34777,-1.93329 0.34523,-0.90803 1.42278,-0.89061 2.02781,0.0328 0.40625,0.62002 0.41284,0.7644 0.0634,1.38906 -0.43374,0.77534 -1.33383,1.03939 -1.74344,0.51145 z m 2.99965,-0.16589 c -0.58877,-0.6506 -0.55213,-1.51857 0.0913,-2.16198 0.66747,-0.66748 0.92367,-0.66383 1.61043,0.0229 0.62615,0.62615 0.52042,1.72637 -0.22028,2.29217 -0.59407,0.4538 -0.96707,0.41524 -1.48144,-0.15312 z m -125.42,-2.37236 c -0.43514,-0.70406 -0.98042,-6.84008 -0.98245,-11.05536 -0.007,-13.58412 4.27297,-25.88054 12.63327,-36.29961 11.58198,-14.4341 28.72672,-22.2925 47.30048,-21.68048 14.55529,0.47962 27.64978,6.00331 38.07889,16.06295 5.27145,5.08469 8.9993,10.17747 12.07437,16.49534 3.94297,8.10098 5.82339,16.33042 5.82339,25.48529 0,3.49625 -0.51617,9.31999 -0.95185,10.73923 -0.12997,0.42338 -0.66161,0.46302 -6.20973,0.46302 h -6.06758 v -0.79375 -0.79375 h 5.52317 5.52318 l 0.16173,-0.80864 c 0.4726,-2.36299 0.75446,-7.40182 0.61337,-10.96532 -1.02501,-25.88975 -19.32579,-47.74501 -44.62979,-53.29802 -4.18461,-0.91832 -6.96915,-1.19296 -12.03854,-1.18737 -5.56689,0.006 -9.10049,0.43574 -14.02292,1.70486 -20.88358,5.38431 -37.15867,22.56783 -41.38151,43.69132 -1.08552,5.43 -1.39734,12.02179 -0.81794,17.29129 0.44265,4.02589 -0.3313,3.57188 6.08887,3.57188 h 5.55121 v 0.79375 0.79375 h -6.0698 c -3.33839,0 -6.12831,-0.0947 -6.19982,-0.21038 z m -13.71633,-12.20274 c -2.14129,-0.24451 -3.96625,-0.51756 -4.05547,-0.60678 -0.20425,-0.20425 0.34592,-5.08208 0.70007,-6.20687 0.42097,-1.33704 1.38027,-1.81068 3.57622,-1.7657 3.03784,0.0622 4.72935,0.51656 5.5488,1.49042 0.69185,0.82222 0.70125,0.88444 0.52354,3.46471 -0.0995,1.4451 -0.24863,2.96577 -0.33133,3.37927 -0.18011,0.90056 -0.20963,0.90177 -5.96183,0.24495 z m 4.90588,-3.035 c 0.25144,-2.08533 0.10374,-2.95224 -0.56384,-3.30951 -0.84203,-0.45065 -4.68086,-0.85923 -5.42274,-0.57717 -0.92584,0.35201 -1.16797,0.89906 -1.38851,3.1372 -0.1512,1.53445 -0.11645,1.91351 0.1767,1.92747 0.20071,0.01 1.67461,0.17502 3.27534,0.3677 1.60072,0.19267 3.08901,0.33217 3.30729,0.31001 0.28605,-0.0291 0.45799,-0.54721 0.61576,-1.8557 z m 130.25579,1.24967 c -0.093,-0.67862 -0.13896,-1.25853 -0.10211,-1.28869 0.29691,-0.24297 6.82818,-5.12539 7.34306,-5.48927 l 0.66146,-0.46748 -0.79375,0.13389 c -0.43657,0.0736 -2.32706,0.3267 -4.2011,0.56238 -2.8507,0.35849 -3.44437,0.37007 -3.63397,0.0709 -0.66804,-1.05422 -0.40552,-1.15429 4.69222,-1.78851 5.47347,-0.68097 5.38033,-0.6996 5.38775,1.07767 0.004,0.94316 -0.0976,1.04381 -3.70748,3.6752 -2.04134,1.48802 -3.77772,2.81259 -3.85862,2.9435 -0.0809,0.1309 0.13077,0.1752 0.47038,0.0984 0.79434,-0.17955 6.79662,-0.93997 7.41951,-0.93997 0.34245,0 0.47401,0.20504 0.47401,0.73878 v 0.73877 l -4.69635,0.58923 c -2.583,0.32407 -4.829,0.58693 -4.99112,0.58414 -0.16212,-0.003 -0.37087,-0.56033 -0.46389,-1.23895 z M -332.9999,229.03663 c -1.1944,-0.39718 -2.48682,-1.01553 -2.87205,-1.3741 -0.65144,-0.60635 -0.6919,-0.77393 -0.57863,-2.39663 0.0757,-1.08498 0.37567,-2.29925 0.79322,-3.21128 0.92916,-2.02955 1.7513,-2.30274 4.69201,-1.5591 4.61919,1.1681 5.58509,2.10043 5.00042,4.82667 -0.38587,1.79925 -0.94745,3.135 -1.62753,3.87121 -0.76025,0.823 -2.62363,0.76897 -5.40744,-0.15677 z m 4.81758,-1.45992 c 0.22505,-0.34348 0.55036,-1.29753 0.7229,-2.12012 0.28813,-1.37369 0.27099,-1.53833 -0.21034,-2.01966 -0.64506,-0.64506 -5.00166,-1.94311 -5.82665,-1.73605 -0.66847,0.16778 -1.69749,2.49075 -1.69749,3.83203 0,0.98077 0.38847,1.27109 2.70421,2.02096 2.56902,0.83189 3.77307,0.83828 4.30737,0.0228 z m 126.96023,0.12403 c -1.00863,-0.62673 -1.96258,-2.88465 -2.14397,-5.07452 -0.11541,-1.39341 -0.0767,-1.51219 0.70898,-2.17326 0.83105,-0.69928 5.32157,-2.30679 6.43874,-2.30492 0.32568,5.3e-4 0.95669,0.22329 1.40225,0.49499 0.95213,0.58062 1.92925,2.83846 2.15796,4.98643 0.13703,1.28685 0.0917,1.43309 -0.66225,2.13739 -0.5033,0.47016 -1.64252,1.01766 -3.01278,1.44792 -3.27204,1.02742 -3.91476,1.09131 -4.88893,0.48597 z m 4.52056,-2.03673 c 1.0093,-0.34017 2.07397,-0.85737 2.36594,-1.14934 0.52117,-0.52118 0.52223,-0.55873 0.0581,-2.06017 -0.62434,-2.01974 -1.09656,-2.71995 -1.83434,-2.71995 -0.74631,0 -5.13002,1.46222 -5.63153,1.87844 -0.20082,0.16666 -0.36512,0.50496 -0.36512,0.75177 0,0.91179 0.83938,3.23625 1.35473,3.75161 0.60653,0.60653 1.06093,0.5558 4.05222,-0.45236 z m -131.74549,-8.72171 c -1.30969,-0.65242 -2.64915,-1.48833 -2.97657,-1.85757 -0.85435,-0.96349 -0.76794,-2.28299 0.29378,-4.48577 1.27221,-2.63948 1.93774,-3.12514 3.67497,-2.68171 1.26731,0.32348 0.76294,1.59187 -0.64254,1.61585 -0.80447,0.0137 -0.95359,0.15642 -1.76284,1.68678 -1.23477,2.3351 -1.1082,2.62749 1.78402,4.12126 3.32186,1.71567 3.78487,1.63993 5.02231,-0.82157 0.73564,-1.46334 0.70639,-2.03979 -0.13715,-2.70332 -0.9947,-0.78243 -1.24153,-0.6977 -1.89683,0.65111 -0.51595,1.06198 -0.64331,1.16706 -1.11106,0.91673 -0.29057,-0.15551 -0.5283,-0.34106 -0.5283,-0.41233 0,-0.0713 0.41689,-0.95742 0.92642,-1.96922 0.91668,-1.82028 0.93408,-1.83631 1.65365,-1.52412 1.35386,0.58739 2.68743,1.51451 2.98902,2.07805 0.40078,0.74887 0.14325,1.96036 -0.83131,3.91062 -1.53325,3.06831 -2.71678,3.33869 -6.45757,1.47521 z m 122.36139,-0.39844 c -0.16787,-0.31366 -0.20488,-0.66763 -0.0823,-0.78661 0.29107,-0.28242 8.85996,-4.27915 8.94768,-4.17341 0.0369,0.0445 0.20679,0.34934 0.37749,0.6774 0.30007,0.57671 0.17397,0.66166 -3.80414,2.56297 -5.14105,2.45713 -5.05812,2.43091 -5.43877,1.71965 z m -3.79782,-6.98675 -0.42452,-0.6479 3.70287,-2.29096 c 2.03658,-1.26002 3.70287,-2.34498 3.70287,-2.41101 0,-0.066 -0.36861,-0.65581 -0.81913,-1.31062 -0.78326,-1.13842 -0.79774,-1.20678 -0.33073,-1.56061 0.26862,-0.20353 0.56584,-0.37383 0.6605,-0.37846 0.0947,-0.005 1.07338,1.44217 2.17495,3.2151 1.52464,2.45387 1.93381,3.30669 1.71373,3.57187 -0.4679,0.56379 -0.93868,0.40544 -1.52083,-0.51153 -0.30026,-0.47294 -0.65514,-1.02606 -0.78862,-1.22916 -0.19316,-0.2939 -0.93656,0.0627 -3.64284,1.74772 -1.87009,1.16433 -3.53596,2.19268 -3.70195,2.28521 -0.16598,0.0925 -0.49282,-0.12331 -0.7263,-0.47965 z M -322.43,205.60831 c -2.0749,-1.49786 -3.84249,-2.79332 -3.92797,-2.8788 -0.18103,-0.18103 3.54828,-5.48454 3.85662,-5.48454 0.11398,0 0.35959,0.18357 0.5458,0.40794 0.27986,0.33721 0.24872,0.53216 -0.17961,1.12447 -2.35118,3.25131 -2.32332,3.19648 -1.87485,3.69074 0.23225,0.25596 0.76865,0.66938 1.192,0.91869 l 0.76972,0.4533 1.38788,-1.98781 c 1.21443,-1.73936 1.44286,-1.94591 1.82772,-1.65265 0.24191,0.18434 0.4769,0.35632 0.52221,0.38217 0.0453,0.0259 -0.52024,0.87293 -1.25677,1.88239 -0.73653,1.00947 -1.33797,1.94474 -1.33653,2.07839 10e-4,0.13365 0.55576,0.62547 1.23183,1.09294 l 1.2292,0.84995 1.47597,-2.08287 c 1.23552,-1.74353 1.55209,-2.04213 1.94318,-1.83282 0.25696,0.13752 0.4672,0.37088 0.4672,0.51858 0,0.42875 -3.52589,5.27043 -3.82775,5.2562 -0.15031,-0.007 -1.97094,-1.23841 -4.04585,-2.73627 z m 109.32862,-0.96902 c -0.48079,-0.53127 -0.48284,-0.59062 -0.0467,-1.35061 0.25092,-0.43721 0.45333,-0.93411 0.4498,-1.10422 -0.004,-0.17011 -0.64138,-1.01909 -1.41744,-1.88662 l -1.41102,-1.57734 -1.00746,0.3092 c -1.09921,0.33736 -1.31653,0.28069 -1.70463,-0.44449 -0.23218,-0.43382 0.23684,-0.6739 4.66048,-2.38565 l 4.91863,-1.90328 0.76206,0.73009 c 0.41913,0.40156 0.76205,0.81098 0.76205,0.90984 0,0.19924 -4.96537,8.72865 -5.2708,9.05407 -0.10566,0.11258 -0.41842,-0.0454 -0.69501,-0.35099 z m 2.77259,-6.06649 c 0.71878,-1.23422 1.26149,-2.28942 1.20602,-2.3449 -0.0555,-0.0555 -1.23266,0.34709 -2.61596,0.89459 -2.7864,1.10283 -2.70933,0.90128 -1.08538,2.83864 0.43656,0.52081 0.88256,0.92641 0.99109,0.90132 0.10854,-0.0251 0.78544,-1.05542 1.50423,-2.28965 z m -103.77137,0.24401 c -1.53488,-1.01666 -4.10417,-3.76922 -4.31966,-4.62777 -0.2853,-1.13673 0.15018,-2.0198 1.86897,-3.78997 1.45688,-1.50043 1.80223,-1.7266 2.63643,-1.7266 0.68675,0 1.1604,0.20045 1.66429,0.70433 0.68224,0.68225 0.68941,0.72083 0.2285,1.23013 -0.47461,0.52443 -0.47771,0.52439 -1.20898,-0.0163 -0.57223,-0.42307 -0.84676,-0.48125 -1.25073,-0.26505 -0.86871,0.46492 -2.45631,2.38911 -2.45631,2.97708 0,0.68615 3.17965,4.03498 4.25344,4.47975 0.6911,0.28627 0.86812,0.24701 1.68065,-0.37273 0.93688,-0.7146 2.00341,-2.03752 2.00341,-2.48502 0,-0.13982 -0.23469,-0.55257 -0.52154,-0.91724 -0.51998,-0.66105 -0.51991,-0.66451 0.0244,-1.15712 0.53741,-0.48635 0.55802,-0.4806 1.31529,0.36694 1.24345,1.39166 0.94628,2.47438 -1.26043,4.59241 -2.18017,2.09256 -2.81259,2.2293 -4.65775,1.00711 z m 91.47275,-4.37636 c -0.55748,-0.37831 -1.76139,-1.32224 -2.67536,-2.09762 l -1.66176,-1.40977 3.21296,-3.86243 c 1.76713,-2.12434 3.30443,-3.82956 3.41623,-3.78936 0.67611,0.24306 4.8029,4.05866 5.02691,4.64784 0.45455,1.19555 0.0293,2.33258 -1.65593,4.42741 -2.34491,2.91489 -3.70243,3.41444 -5.66305,2.08393 z m 3.83337,-2.38684 c 1.62801,-1.7813 2.22801,-2.86261 2.02882,-3.65627 -0.14271,-0.56859 -2.8216,-2.92633 -3.32493,-2.92633 -0.13613,0 -1.26596,1.21578 -2.51073,2.70173 l -2.26322,2.70173 1.60196,1.33317 c 2.16212,1.79933 2.69978,1.78079 4.4681,-0.15403 z m -86.2784,-0.86771 c -0.38638,-0.30494 -1.39571,-1.57493 -2.24295,-2.82221 -2.35965,-3.47379 -2.16055,-4.48463 1.33282,-6.7668 2.70534,-1.76735 3.90581,-1.28774 6.50546,2.59906 2.0284,3.0327 1.83604,4.1195 -1.0927,6.1739 -1.97675,1.38661 -3.44298,1.65234 -4.50263,0.81605 z m 3.898,-2.10474 c 1.78086,-1.34302 1.79207,-1.84089 0.0985,-4.37303 -0.74977,-1.121 -1.63913,-2.21897 -1.97637,-2.43993 -0.55792,-0.36557 -0.706,-0.35439 -1.64401,0.12415 -1.2781,0.65204 -2.7163,1.97011 -2.7163,2.48941 0,0.57355 2.45948,4.24072 3.27369,4.88117 0.85909,0.67576 1.29839,0.57473 2.96452,-0.68177 z m 69.92858,-0.89825 -0.95924,-0.57197 -0.18596,-3.99997 c -0.10227,-2.19998 -0.10385,-4.43763 -0.003,-4.97257 0.10035,-0.53493 0.12366,-0.9726 0.0518,-0.9726 -0.0719,0 -1.04322,1.66688 -2.15858,3.70417 -1.11536,2.03729 -2.11862,3.70416 -2.22947,3.70416 -0.11085,0 -0.42076,-0.16029 -0.68868,-0.3562 -0.45861,-0.33534 -0.35157,-0.60655 1.82762,-4.63073 1.27312,-2.35099 2.3981,-4.32603 2.49997,-4.38899 0.10187,-0.063 0.65567,0.14921 1.23067,0.47149 l 1.04544,0.58596 0.1323,4.86533 0.13229,4.86532 1.96101,-3.6165 c 1.07856,-1.98908 2.09059,-3.61272 2.24896,-3.60809 0.15837,0.005 0.48583,0.15892 0.7277,0.34288 0.39656,0.30162 0.20167,0.76829 -1.98438,4.75166 -1.33327,2.42945 -2.48366,4.41301 -2.55642,4.4079 -0.0728,-0.005 -0.56395,-0.26667 -1.09154,-0.58125 z m -64.78971,-6.43224 c -1.23692,-2.40412 -2.2818,-4.4648 -2.32195,-4.57928 -0.0401,-0.11449 0.22691,-0.34481 0.59348,-0.51182 0.81271,-0.3703 0.69728,-0.53385 3.37161,4.77742 l 1.96548,3.90347 -0.60437,0.39601 c -0.33241,0.2178 -0.63833,0.3936 -0.67983,0.39067 -0.0415,-0.003 -1.08749,-1.97234 -2.32442,-4.37647 z m 5.48445,-2.83615 c -0.83364,-2.51466 -1.5157,-4.66073 -1.5157,-4.76905 0,-0.10831 0.26789,-0.29715 0.59532,-0.41964 1.75632,-0.65703 1.60923,-0.72284 4.74984,2.12501 1.64407,1.49081 3.30897,3.00024 3.69978,3.35427 0.6862,0.62164 0.66177,0.50267 -0.71264,-3.46984 l -1.4232,-4.11355 0.76321,-0.26606 0.76321,-0.26605 1.53693,4.54486 c 0.84531,2.49968 1.57286,4.68041 1.61678,4.84606 0.0439,0.16565 -0.46987,0.4885 -1.14177,0.71744 l -1.22163,0.41625 -3.72083,-3.33287 c -2.04647,-1.83308 -3.65592,-3.16796 -3.57658,-2.9664 0.0793,0.20156 0.70441,2.01738 1.38904,4.03515 1.01077,2.97901 1.17655,3.7119 0.88189,3.89856 -0.95077,0.60227 -1.15831,0.26709 -2.68365,-4.33414 z m 45.84472,3.13131 c -3.11148,-0.87588 -4.17761,-1.81174 -3.86293,-3.39093 0.0939,-0.47124 0.66472,-2.43592 1.26849,-4.36595 1.00591,-3.21556 1.14376,-3.49531 1.64766,-3.3437 0.30245,0.091 0.62869,0.24136 0.72499,0.33414 0.0963,0.0928 -0.36694,1.885 -1.02942,3.9827 -0.87761,2.77888 -1.13306,3.9278 -0.94122,4.23333 0.33965,0.54093 2.34156,1.31248 3.45348,1.33099 1.03595,0.0172 1.17167,-0.23389 2.61131,-4.8318 0.95892,-3.06261 0.99282,-3.1229 1.66158,-2.95506 0.37548,0.0942 0.70862,0.19729 0.74033,0.22899 0.0969,0.0969 -2.26481,7.39869 -2.58909,8.00461 -0.33027,0.61712 -1.32742,1.16912 -2.04398,1.13149 -0.24782,-0.013 -0.98636,-0.17448 -1.6412,-0.35881 z m -13.12028,-2.77789 c -2.81688,-0.44149 -3.4648,-1.58901 -3.00822,-5.3278 0.32899,-2.69396 0.64255,-3.73843 1.30126,-4.33456 1.15171,-1.04228 5.65374,-0.70438 6.87405,0.51594 0.60217,0.60216 0.67687,0.88888 0.67467,2.58936 -0.006,4.89002 -0.79511,6.54492 -3.18824,6.68924 -0.71896,0.0434 -1.91304,-0.0161 -2.65352,-0.13218 z m 3.05568,-1.33197 c 0.68557,-0.36691 1.02546,-1.5359 1.22846,-4.22499 0.17087,-2.26347 0.15673,-2.34864 -0.45469,-2.73749 -0.34707,-0.22074 -1.36471,-0.48262 -2.26141,-0.58196 -1.43951,-0.15947 -1.69505,-0.11594 -2.18282,0.37183 -0.30384,0.30384 -0.55612,0.7608 -0.56061,1.01546 -0.005,0.25466 -0.12213,1.34092 -0.26143,2.41391 -0.13929,1.07298 -0.18479,2.22369 -0.1011,2.55712 0.16596,0.66125 1.04299,1.10586 2.48737,1.26098 0.50932,0.0547 1.08269,0.11851 1.27416,0.14179 0.19147,0.0233 0.5659,-0.0742 0.83207,-0.21665 z m -15.95658,0.85334 c -0.0678,-0.10968 -0.20957,-2.35342 -0.31509,-4.9861 l -0.19185,-4.78669 1.42396,-0.17097 c 0.78317,-0.094 2.22762,-0.17202 3.20989,-0.17328 1.72922,-0.002 1.78594,0.0187 1.78594,0.65916 0,0.64611 -0.0455,0.66145 -1.96274,0.66145 -2.72865,0 -2.79976,0.0448 -2.79976,1.76446 v 1.44326 l 2.3151,-0.056 c 2.03466,-0.0492 2.32627,0.001 2.40728,0.41496 0.13963,0.7133 -0.43395,0.9227 -2.53957,0.92714 l -1.91823,0.004 v 2.24896 c 0,2.208 -0.0118,2.24896 -0.64584,2.24896 -0.35522,0 -0.70131,-0.0897 -0.76909,-0.19941 z m 106.67354,114.49455 c -0.74424,-0.74424 -0.78736,-0.89284 -0.6333,-2.18281 0.0909,-0.76132 0.23225,-5.95561 0.31406,-11.54288 l 0.14874,-10.15866 -2.20907,0.17924 c -3.51395,0.28512 -4.45404,-0.2584 -4.45404,-2.57516 0,-0.99386 0.12901,-1.29305 0.80154,-1.85895 0.83098,-0.69923 1.34588,-0.83136 4.20411,-1.07885 0.9341,-0.0809 1.72786,-0.17655 1.76391,-0.2126 0.036,-0.036 0.25152,-1.49429 0.47882,-3.24053 0.82429,-6.33248 2.26838,-9.26554 5.37343,-10.9139 3.38281,-1.79582 8.64639,-1.85409 9.58189,-0.10609 0.15724,0.2938 0.28588,1.00767 0.28588,1.58638 0,1.45407 -1.12453,2.42217 -2.81355,2.42217 -2.18449,0 -3.55391,0.52143 -4.89717,1.86469 -1.39095,1.39094 -2.19614,3.45633 -2.49878,6.40954 l -0.16885,1.64764 3.3475,-0.0936 c 3.97352,-0.11115 5.02581,0.0489 5.86979,0.8929 1.06354,1.06353 0.79317,3.17824 -0.49445,3.86735 -0.32389,0.17334 -2.39015,0.39465 -4.62879,0.49577 -2.22405,0.10047 -4.10833,0.24726 -4.18728,0.32622 -0.079,0.079 -0.17534,5.06757 -0.21418,11.08581 -0.0738,11.43059 -0.14424,12.17789 -1.26029,13.36587 -0.89695,0.95477 -2.66101,0.86941 -3.70992,-0.17951 z m 69.829406,-1.60384 c -0.254665,-0.14833 -0.640263,-0.61242 -0.856883,-1.03132 l -0.393856,-0.76163 -1.459822,0.51308 c -3.161195,1.11107 -6.909875,1.24293 -9.716975,0.34178 -1.57456,-0.50547 -3.71914,-2.41027 -4.27346,-3.79565 -1.16646,-2.91528 -1.85198,-14.97944 -1.14659,-20.17825 0.21814,-1.60774 0.57793,-3.13431 0.82903,-3.51754 0.90559,-1.3821 3.09124,-1.48449 4.28116,-0.20055 0.76469,0.82512 0.80165,1.86874 0.23549,6.64898 -0.52728,4.45194 -0.13144,11.7658 0.80489,14.87193 0.3537,1.17336 4.54633,1.46454 8.309889,0.57714 l 1.970682,-0.46467 0.05021,-8.86032 c 0.05659,-9.98717 0.259212,-11.99311 1.302554,-12.89522 0.851467,-0.73621 2.639153,-0.80129 3.472307,-0.12641 1.086909,0.88043 1.147197,1.30882 0.868712,6.17277 -0.144952,2.53172 -0.235532,8.35359 -0.201292,12.93749 0.06506,8.70996 0.01109,9.19523 -1.088144,9.78352 -0.644613,0.34499 -2.384743,0.33618 -2.987897,-0.0151 z m 30.360942,0.048 c -1.231767,-0.53284 -1.489075,-1.19541 -2.032767,-5.23453 -0.389678,-2.89488 -0.538877,-5.61602 -0.570389,-10.40266 -0.03958,-6.0127 -0.08194,-6.54938 -0.584782,-7.40834 -0.706755,-1.2073 -1.585013,-1.30948 -3.442838,-0.40054 -3.273054,1.60136 -6.37921,7.15893 -6.989048,12.50496 -0.145282,1.27346 -0.191161,3.80365 -0.101944,5.62266 0.16137,3.29036 0.158697,3.31102 -0.519879,4.0349 -0.562743,0.60035 -0.906913,0.7276 -1.967707,0.7276 -1.448355,0 -2.304579,-0.58322 -2.632654,-1.79326 -0.258165,-0.95218 -0.23898,-9.7554 0.0415,-19.04578 l 0.225756,-7.47759 0.658349,-0.65835 c 0.514223,-0.51422 0.929963,-0.65835 1.899053,-0.65835 1.992603,0 2.89814,1.41112 2.914147,4.54116 l 0.0064,1.23387 1.634384,-1.70204 c 3.22834,-3.36197 7.048262,-4.4392 10.190004,-2.8736 3.034771,1.51229 4.050612,4.78471 4.050612,13.04874 0,2.72646 0.180578,5.42696 0.525039,7.85221 0.740198,5.21157 0.711967,6.2681 -0.19431,7.27343 -0.777187,0.86212 -2.161593,1.22527 -3.108854,0.81551 z m 162.189584,0 c -1.231768,-0.53284 -1.489075,-1.19541 -2.032768,-5.23453 -0.389678,-2.89488 -0.538877,-5.61602 -0.570388,-10.40266 -0.03958,-6.0127 -0.08194,-6.54938 -0.584782,-7.40834 -0.706755,-1.2073 -1.585013,-1.30948 -3.442838,-0.40054 -3.273055,1.60136 -6.37921,7.15893 -6.989048,12.50496 -0.145283,1.27346 -0.191162,3.80365 -0.101944,5.62266 0.161369,3.29036 0.158697,3.31102 -0.51988,4.0349 -0.562742,0.60035 -0.906912,0.7276 -1.967706,0.7276 -1.448356,0 -2.304574,-0.58322 -2.632657,-1.79326 -0.258154,-0.95218 -0.238972,-9.7554 0.04151,-19.04578 l 0.225742,-7.47759 0.658363,-0.65835 c 0.514218,-0.51422 0.929957,-0.65835 1.899047,-0.65835 1.992603,0 2.89814,1.41112 2.914147,4.54116 l 0.0063,1.23387 1.634384,-1.70204 c 3.22834,-3.36197 7.048262,-4.4392 10.190004,-2.8736 3.034772,1.51229 4.050612,4.78471 4.050612,13.04874 0,2.72646 0.18058,5.42696 0.52504,7.85221 0.7402,5.21157 0.71197,6.2681 -0.19431,7.27343 -0.77718,0.86212 -2.161594,1.22527 -3.108855,0.81551 z M -2.2839052,290.92353 c -0.5904442,-0.42772 -1.289394,-1.06383 -1.55321,-1.41358 l -0.4796631,-0.6359 -1.9035713,0.86749 c -3.8294734,1.74515 -5.7746904,2.02455 -9.1356394,1.31222 -2.171832,-0.46032 -3.118802,-0.93799 -4.640818,-2.34093 -2.312511,-2.13161 -3.311789,-5.18381 -3.352773,-10.24078 -0.02276,-2.81642 0.06699,-3.59505 0.60526,-5.24605 2.245493,-6.88772 9.288516,-11.5118 15.8052827,-10.37695 2.3130669,0.4028 5.3245015,1.79916 6.24858522,2.89736 0.747395,0.88824 0.9750425,2.31424 0.45278146,2.83649 -0.78634168,0.78635 -1.06841398,10.91323 -0.38473063,13.81328 0.21719646,0.92134 0.88193563,2.86285 1.47716875,4.31447 0.9778735,2.38472 1.0507398,2.71543 0.7553325,3.4286 -0.70601417,1.70446 -2.20651917,2.00668 -3.8940052,0.78428 z m -6.9433281,-4.83823 c 0.9548548,-0.29017 2.8541398,-1.47782 3.3595998,-2.10082 0.2065602,-0.25461 0.1781968,-1.34907 -0.1017323,-3.92493 -0.3779838,-3.47818 -0.3549121,-10.19111 0.038285,-11.15013 0.1378744,-0.33623 -0.095065,-0.53886 -1.0298642,-0.89586 -2.9942631,-1.14351 -7.360126,1.02189 -9.531191,4.72732 -2.207234,3.76715 -1.825387,10.1802 0.749247,12.58316 1.309793,1.22245 3.973777,1.5337 6.5156557,0.76126 z m 24.3120593,5.21914 c -1.115589,-0.60631 -1.384829,-1.64614 -1.182925,-4.56825 0.146156,-2.11502 -0.245401,-18.01234 -0.448628,-18.21559 -0.03313,-0.0331 -1.400651,-0.18537 -3.038977,-0.33833 -4.1095616,-0.38371 -4.8016852,-0.81349 -4.8164489,-2.99078 -0.00635,-0.93826 0.1472141,-1.42293 0.6278827,-1.98176 0.6969919,-0.81028 1.1674475,-0.86578 5.1718902,-0.61003 l 1.971701,0.12592 -0.0758,-3.7665 -0.07578,-3.76649 0.795708,-0.79571 c 0.593275,-0.59329 1.040871,-0.7957 1.759479,-0.7957 2.314972,0 3.03149,1.39564 3.039851,5.9211 l 0.0058,3.14298 2.330265,-0.18229 c 4.639177,-0.36291 6.400985,0.3242 6.400985,2.4964 0,1.24497 -0.559435,2.49112 -1.246981,2.77762 -0.260059,0.10836 -1.857825,0.22619 -3.550603,0.26183 -1.692777,0.0356 -3.223974,0.15516 -3.402647,0.26558 -0.251381,0.15537 -0.282258,1.82335 -0.136552,7.377 0.351896,13.41089 0.280988,14.41173 -1.097994,15.49642 -0.797084,0.62699 -2.036048,0.68692 -3.030247,0.14658 z m -149.501206,-0.22231 c -3.71248,-1.38079 -6.42209,-4.48389 -7.47991,-8.56612 -0.54072,-2.08672 -0.54987,-6.84494 -0.0172,-8.94931 1.01487,-4.00938 4.00453,-8.0378 7.00917,-9.44451 3.05043,-1.42814 6.79492,-1.61602 9.44936,-0.47412 2.32282,0.99925 4.43714,3.71417 5.54859,7.12476 0.62501,1.91791 0.76571,8.19707 0.23438,10.46025 -0.94398,4.02087 -3.53786,7.63565 -6.61411,9.2173 -1.44846,0.74472 -1.88048,0.83426 -4.38489,0.90881 -1.87811,0.0559 -3.09149,-0.0339 -3.74539,-0.27706 z m 6.14955,-5.93638 c 2.83642,-1.48176 4.13506,-4.53325 3.86165,-9.0739 -0.3245,-5.38888 -2.51842,-8.10929 -6.08053,-7.53968 -3.19943,0.51161 -5.32597,3.12957 -6.22024,7.65766 -0.34213,1.73235 -0.3584,2.39286 -0.0966,3.91983 0.36823,2.1474 0.77191,3.01624 1.94762,4.19195 1.77978,1.77978 4.20274,2.09024 6.58805,0.84414 z m 184.879625,5.93638 c -3.712475,-1.38079 -6.422099,-4.48389 -7.479904,-8.56612 -0.540728,-2.08672 -0.549883,-6.84494 -0.0172,-8.94931 1.014888,-4.00938 4.004548,-8.0378 7.009182,-9.44451 3.050435,-1.42814 6.794924,-1.61602 9.449356,-0.47412 2.32283,0.99925 4.437142,3.71417 5.548604,7.12476 0.624998,1.91791 0.765704,8.19707 0.234368,10.46025 -0.943981,4.02087 -3.53785,7.63565 -6.614108,9.2173 -1.448461,0.74472 -1.880473,0.83426 -4.384886,0.90881 -1.878119,0.0559 -3.091498,-0.0339 -3.745389,-0.27706 z m 6.149551,-5.93638 c 2.836413,-1.48176 4.135041,-4.53325 3.861647,-9.0739 -0.324512,-5.38888 -2.518437,-8.10929 -6.080548,-7.53968 -3.199421,0.51161 -5.325957,3.12957 -6.220222,7.65766 -0.342133,1.73235 -0.358405,2.39286 -0.09657,3.91983 0.368247,2.1474 0.771922,3.01624 1.947624,4.19195 1.779799,1.77978 4.202748,2.09024 6.588072,0.84414 z m -108.052685,5.73644 c -3.953933,-0.93049 -7.388833,-4.17804 -8.719026,-8.24345 -0.71165,-2.17505 -0.766498,-6.94347 -0.10877,-9.45836 1.30093,-4.97421 4.405815,-8.49123 8.667062,-9.81748 1.857534,-0.57813 6.216782,-0.69025 7.67551,-0.1974 0.494638,0.16712 1.449017,0.70137 2.12082,1.18723 l 1.221449,0.88337 0.178435,-4.1638 c 0.400447,-9.34499 0.79375,-11.91374 1.888437,-12.33381 1.055079,-0.40487 2.524813,-0.16528 3.214026,0.52394 l 0.688314,0.6883 -0.176953,3.74347 c -0.09734,2.05891 -0.412327,6.77957 -0.699982,10.49035 -0.555969,7.17192 -0.655267,14.31119 -0.25945,18.65312 0.132662,1.45521 0.319669,3.47927 0.415581,4.49792 0.164015,1.74171 0.133932,1.89545 -0.504667,2.57969 -0.899953,0.96425 -2.552356,1.02032 -3.455405,0.11726 -0.335703,-0.33569 -0.66249,-0.76674 -0.726202,-0.95789 -0.08551,-0.25652 -0.56343,-0.121 -1.825016,0.51752 -0.940065,0.47578 -2.304495,1.02448 -3.032099,1.21933 -1.476137,0.3953 -5.020469,0.43348 -6.562064,0.0707 z m 6.410855,-5.54499 c 0.644445,-0.29236 1.805305,-1.07286 2.579687,-1.73444 l 1.40798,-1.20288 v -5.2941 -5.2941 l -0.8178,-1.13877 c -1.643354,-2.28832 -4.723977,-3.22414 -7.923054,-2.40685 -3.280701,0.83815 -4.907254,2.59814 -5.70185,6.16963 -0.599387,2.69418 -0.415634,5.31697 0.498237,7.1117 0.825182,1.62053 2.716239,3.35956 4.240662,3.89973 1.641951,0.5818 4.304242,0.53061 5.716138,-0.10992 z m 74.712327,4.13833 -0.742368,-0.63819 -0.07279,-7.23316 c -0.04003,-3.97825 0.02328,-9.40715 0.140732,-12.06424 0.21164,-4.78858 0.219895,-4.83745 0.938689,-5.55625 0.578458,-0.57845 0.969274,-0.72518 1.931511,-0.72518 1.039865,0 1.318128,0.12516 2.016892,0.90721 l 0.810604,0.90721 -0.229367,3.98758 c -0.12618,2.19317 -0.243814,7.32133 -0.261461,11.39591 -0.01773,4.07459 -0.05085,7.62211 -0.07377,7.88338 -0.146235,1.66715 -2.996115,2.39307 -4.458679,1.13573 z m 1.325033,-32.68615 c -1.093972,-0.66705 -1.405943,-1.28841 -1.405943,-2.80035 0,-1.05114 0.133615,-1.36808 0.899584,-2.13406 0.734007,-0.73401 1.101672,-0.89959 1.997524,-0.89959 2.117276,0 3.452892,1.28626 3.452892,3.32528 0,0.77435 -0.207459,1.17776 -1.027218,1.99752 -0.839761,0.83978 -1.213908,1.02702 -2.050521,1.02621 -0.562821,-5.3e-4 -1.402662,-0.23229 -1.866318,-0.51501 z M -104.08036,240.91481 c -1.01864,-0.11816 -2.36515,-0.36911 -2.99223,-0.55767 -2.17037,-0.65259 -3.09601,-2.77339 -1.88336,-4.31503 0.47879,-0.60868 0.73898,-0.69634 2.05052,-0.69083 0.82619,0.004 1.97841,0.11865 2.56049,0.25594 0.58208,0.1373 2.07655,0.32836 3.32104,0.42458 6.260786,0.48403 9.167641,-2.93697 9.674982,-11.38623 l 0.159845,-2.66206 -0.778811,1.19062 c -1.946569,2.97587 -4.122507,4.10036 -7.582929,3.91873 -2.760647,-0.1449 -5.074167,-1.17434 -6.767407,-3.01129 -4.58843,-4.97786 -4.03479,-14.80367 1.13077,-20.06865 2.81989,-2.87416 6.178622,-4.19072 10.764383,-4.21945 3.262019,-0.0204 4.569254,0.30797 6.209329,1.55987 0.661972,0.50529 1.390306,0.91871 1.618523,0.91871 0.228213,0 0.762965,0.34803 1.188333,0.7734 0.704541,0.70454 0.77315,0.93421 0.770597,2.57969 -0.0016,0.99345 -0.23943,3.33935 -0.528638,5.21308 -0.289208,1.87374 -0.764841,6.81484 -1.056963,10.98021 -0.292121,4.16538 -0.706908,8.39642 -0.921744,9.40233 -0.452538,2.11884 -1.649114,4.81331 -2.753527,6.20044 -0.99949,1.25534 -3.194966,2.55908 -5.170202,3.07022 -1.923812,0.49782 -6.512861,0.7134 -9.013001,0.42339 z m 8.014898,-20.01183 c 1.447739,-0.72144 3.229432,-2.52844 4.023188,-4.08033 0.690917,-1.35084 1.01624,-2.73548 1.566145,-6.66581 0.562025,-4.01696 0.616029,-3.86991 -1.679855,-4.57415 -1.557346,-0.47769 -2.560238,-0.50091 -4.436872,-0.10273 -4.869784,1.03326 -7.567424,4.81973 -7.307474,10.25691 0.0912,1.90815 0.23495,2.52688 0.81811,3.52195 1.35168,2.30647 4.300894,2.99753 7.016758,1.64416 z m 141.73927,7.32502 c -1.231767,-0.53284 -1.489075,-1.19542 -2.032767,-5.23454 -0.389678,-2.89487 -0.538877,-5.61601 -0.570389,-10.40266 -0.03958,-6.01269 -0.08194,-6.54938 -0.584782,-7.40833 -0.706755,-1.20731 -1.585013,-1.30949 -3.442838,-0.40054 -3.273054,1.60136 -6.37921,7.15893 -6.989048,12.50496 -0.145282,1.27345 -0.191161,3.80365 -0.101944,5.62266 0.16137,3.29036 0.158698,3.31102 -0.519879,4.0349 -0.562743,0.60034 -0.906913,0.7276 -1.967707,0.7276 -1.448355,0 -2.304573,-0.58322 -2.632657,-1.79326 -0.258154,-0.95219 -0.238971,-9.75541 0.04151,-19.04579 l 0.225743,-7.47759 0.658363,-0.65834 c 0.514217,-0.51422 0.929957,-0.65835 1.899047,-0.65835 1.992603,0 2.89814,1.41112 2.914147,4.54116 l 0.0063,1.23387 1.634384,-1.70205 c 3.22834,-3.36196 7.048262,-4.43919 10.190004,-2.8736 3.034771,1.5123 4.050612,4.78472 4.050612,13.04874 0,2.72647 0.180578,5.42697 0.525039,7.85221 0.740198,5.21158 0.711967,6.26811 -0.19431,7.27343 -0.777187,0.86212 -2.161593,1.22528 -3.108854,0.81552 z m -84.269791,-0.31557 c -1.89492,-0.36734 -4.905799,-1.99637 -6.339311,-3.42989 -0.74258,-0.74259 -1.67468,-2.07526 -2.163022,-3.09259 -0.780521,-1.62599 -0.868362,-2.06406 -0.9711,-4.84312 -0.09385,-2.53815 -0.01773,-3.40228 0.449104,-5.1042 1.456425,-5.30878 5.115242,-10.3748 8.667485,-12.00106 1.351333,-0.61867 1.697223,-0.66531 4.026456,-0.54293 5.372841,0.28229 9.407128,2.7374 8.904129,5.41867 -0.414523,2.20964 -2.500895,2.82502 -4.347396,1.28229 -1.376415,-1.14996 -2.619057,-1.56025 -4.805547,-1.58671 -1.52535,-0.0185 -1.861424,0.0725 -2.740131,0.74149 -2.284889,1.73962 -5.162153,7.62593 -5.246423,10.73321 -0.0835,3.07812 1.113181,5.26141 3.600344,6.56874 1.186339,0.62358 1.669838,0.71637 3.743537,0.71849 2.330185,0.002 2.432632,-0.0245 4.776787,-1.25433 2.801223,-1.46961 3.805899,-1.58709 4.760833,-0.55668 0.47244,0.50975 0.648838,0.99918 0.648838,1.80018 0,1.42889 -0.99023,2.41615 -3.704167,3.69309 -3.462284,1.62904 -6.169607,2.05452 -9.260416,1.45535 z m -91.587057,-0.3303 c -3.71248,-1.38079 -6.4221,-4.48389 -7.47991,-8.56612 -0.54073,-2.08672 -0.54987,-6.84493 -0.0172,-8.94931 1.01487,-4.00937 4.00453,-8.0378 7.00917,-9.44451 3.05044,-1.42814 6.79493,-1.61602 9.44936,-0.47412 2.32282,0.99926 4.43714,3.71417 5.54859,7.12476 0.62501,1.91791 0.76571,8.19707 0.23438,10.46025 -0.94398,4.02087 -3.53786,7.63565 -6.61411,9.2173 -1.44846,0.74472 -1.88047,0.83426 -4.38489,0.90881 -1.87811,0.0559 -3.09148,-0.0339 -3.74539,-0.27706 z m 6.14954,-5.93638 c 2.83642,-1.48176 4.13506,-4.53325 3.86165,-9.0739 -0.32449,-5.38888 -2.51842,-8.10928 -6.08053,-7.53968 -3.19942,0.51161 -5.32597,3.12957 -6.22024,7.65766 -0.34213,1.73235 -0.3584,2.39286 -0.0966,3.91983 0.36824,2.1474 0.77191,3.01624 1.94762,4.19195 1.77978,1.77979 4.20274,2.09024 6.58805,0.84414 z m 111.854628,5.93638 c -3.712475,-1.38079 -6.422099,-4.48389 -7.479903,-8.56612 -0.540729,-2.08672 -0.549884,-6.84493 -0.0172,-8.94931 1.014889,-4.00937 4.004548,-8.0378 7.009183,-9.44451 3.050434,-1.42814 6.7949231,-1.61602 9.4493554,-0.47412 2.32283002,0.99926 4.4371419,3.71417 5.5486036,7.12476 0.6249987,1.91791 0.7657041,8.19707 0.2343679,10.46025 -0.9439804,4.02087 -3.53784961,7.63565 -6.6141071,9.2173 -1.4484615,0.74472 -1.8804731,0.83426 -4.3848867,0.90881 -1.8781181,0.0559 -3.0914971,-0.0339 -3.7453891,-0.27706 z m 6.1495516,-5.93638 c 2.8364127,-1.48176 4.1350406,-4.53325 3.8616467,-9.0739 -0.3245115,-5.38888 -2.5184365,-8.10928 -6.0805484,-7.53968 -3.1994209,0.51161 -5.3259569,3.12957 -6.2202219,7.65766 -0.342133,1.73235 -0.358405,2.39286 -0.09657,3.91983 0.368247,2.1474 0.771922,3.01624 1.947625,4.19195 1.779799,1.77979 4.202747,2.09024 6.5880716,0.84414 z m -154.8839396,5.73644 c -3.95392,-0.93049 -7.38882,-4.17804 -8.71901,-8.24344 -0.71167,-2.17505 -0.76651,-6.94348 -0.10878,-9.45837 1.30092,-4.97421 4.40582,-8.49123 8.66705,-9.81748 1.85755,-0.57813 6.21678,-0.69025 7.67551,-0.1974 0.49466,0.16712 1.44904,0.70138 2.12084,1.18723 l 1.22145,0.88337 0.17842,-4.16379 c 0.40044,-9.345 0.79375,-11.91375 1.88844,-12.33382 1.05507,-0.40487 2.52483,-0.16527 3.21404,0.52394 l 0.6883,0.6883 -0.17696,3.74347 c -0.0973,2.05891 -0.41232,6.77957 -0.69998,10.49035 -0.55596,7.17192 -0.65526,14.31119 -0.25944,18.65313 0.13266,1.4552 0.31967,3.47927 0.41559,4.49791 0.164,1.74171 0.13392,1.89545 -0.50468,2.57969 -0.89995,0.96425 -2.55234,1.02033 -3.45541,0.11726 -0.33569,-0.33569 -0.66248,-0.76674 -0.72619,-0.95788 -0.0855,-0.25653 -0.56343,-0.12101 -1.82503,0.51752 -0.94004,0.47577 -2.30449,1.02447 -3.03209,1.21932 -1.47614,0.3953 -5.02047,0.43348 -6.56207,0.0707 z m 6.41086,-5.54499 c 0.64444,-0.29236 1.8053,-1.07286 2.57969,-1.73444 l 1.40798,-1.20288 v -5.2941 -5.2941 l -0.81781,-1.13877 c -1.64334,-2.28832 -4.72396,-3.22414 -7.92305,-2.40685 -3.28071,0.83815 -4.90726,2.59814 -5.70184,6.16963 -0.59939,2.69418 -0.41565,5.31697 0.49823,7.11171 0.82518,1.62053 2.71625,3.35956 4.24067,3.89972 1.64194,0.5818 4.30424,0.53061 5.71613,-0.10992 z m 84.182849,5.30829 c -3.654584,-0.98562 -6.083618,-2.90203 -7.620953,-6.01264 -0.909082,-1.83937 -0.979249,-2.15928 -1.086115,-4.95092 -0.145256,-3.79473 0.392245,-6.63191 1.817926,-9.59591 2.669117,-5.54908 7.252732,-8.05563 13.302827,-7.27464 5.342705,0.68968 8.111966,2.96491 8.111966,6.66484 0,1.76172 -0.75401,3.40669 -2.07428,4.52535 -0.768827,0.65142 -12.587394,6.65921 -15.365942,7.81104 l -0.63918,0.26497 0.998378,1.10509 c 0.558112,0.61776 1.77083,1.48542 2.750027,1.96755 1.624118,0.79966 1.944713,0.86246 4.403301,0.86246 3.77571,0 6.089439,-0.78046 8.011319,-2.70232 1.632585,-1.63259 2.467292,-1.79153 3.748167,-0.71375 0.674581,0.56764 0.814043,0.87821 0.814043,1.81296 0,1.50752 -0.806132,2.66144 -2.792095,3.99671 -2.574052,1.73067 -5.462375,2.56646 -9.246446,2.67565 -2.552753,0.0737 -3.558726,-0.0119 -5.132943,-0.43644 z m 3.177698,-17.1644 c 3.425958,-1.6725 6.585453,-3.56378 6.585453,-3.94205 0,-0.62259 -3.66559,-1.91491 -5.431525,-1.91491 -1.424279,0 -3.415057,0.74754 -4.528185,1.70032 -1.146017,0.98096 -2.760531,3.78362 -3.259614,5.65842 -0.167058,0.62757 -0.370708,1.31557 -0.45257,1.52889 -0.161396,0.42058 1.276562,-0.1944 7.086441,-3.03067 z m 79.691363,15.99444 -0.742368,-0.63819 -0.07279,-7.23316 c -0.04003,-3.97825 0.02328,-9.40715 0.140732,-12.06424 0.21164,-4.78858 0.219895,-4.83745 0.938688,-5.55625 0.578459,-0.57845 0.969275,-0.72518 1.931512,-0.72518 1.039865,0 1.318127,0.12516 2.016892,0.90721 l 0.810604,0.90721 -0.229367,3.98758 c -0.12618,2.19317 -0.243814,7.32133 -0.261462,11.39592 -0.01773,4.07458 -0.05085,7.6221 -0.07376,7.88337 -0.146236,1.66715 -2.996116,2.39307 -4.458679,1.13573 z m 1.325033,-32.68614 c -1.093973,-0.66706 -1.405943,-1.28841 -1.405943,-2.80036 0,-1.05114 0.133615,-1.36808 0.899583,-2.13406 0.734007,-0.73401 1.101672,-0.89959 1.997525,-0.89959 2.117275,0 3.452892,1.28626 3.452892,3.32528 0,0.77435 -0.20746,1.17776 -1.027218,1.99752 -0.839761,0.83978 -1.213909,1.02702 -2.050521,1.02621 -0.562822,-5.2e-4 -1.402662,-0.23229 -1.866318,-0.515 z"
       id="path248"
       inkscape:export-filename="path248.svg"
       inkscape:export-xdpi="96"
       inkscape:export-ydpi="96" /></g></svg>
